<svg height="101.229" viewBox="0 0 137.117 101.229" width="137.117" xmlns="http://www.w3.org/2000/svg"><path d="m84.458 28.363a42.111 42.111 0 0 0 -73.968-.594c-6.031 10.854-7.735 24.315-3.728 36.131a42.473 42.473 0 0 0 30.586 27.551 42.586 42.586 0 0 0 45.683-19.888c.383-.642.292-1.563.671-2.2a42.112 42.112 0 0 1 -71.74 1.69c-7.843-12.1-9.226-28.342-2.142-41.09a42.1 42.1 0 0 1 73.006-1.073.9.9 0 0 0 1.668-.313.37.37 0 0 0 -.036-.214z" fill="#54bfa2" transform="translate(2.282 3.028)"/><path d="m99.751 31.845a50.881 50.881 0 0 0 -43.612-31.737c-16.554-1.054-33.595 5.639-44.339 18.377a50.3 50.3 0 0 0 33.2 82.452c19.776 2.084 39.77-7.1 50.508-23.81a.9.9 0 0 0 -.829-1.389c-.379.033-.7.111-.817.313-10.111 17.169-29.3 27.205-49.223 23.9a50.318 50.318 0 0 1 -35.845-73.768c8.689-15.859 25.731-26.383 43.976-25.527a50.812 50.812 0 0 1 44.26 31.624.618.618 0 0 0 .193.257 1.462 1.462 0 0 0 2.528-.692z" fill="#dda020" transform="translate(.01)"/><path d="m83.511 28.416c-7.917-12.438-20.572-21.216-35.587-22.316a44.641 44.641 0 0 0 -41.132 68.287c7.608 12.063 19.662 20.635 34.036 22.213a45.144 45.144 0 0 0 46.3-27.538c.027-.063 0-.147-.069-.247a1.043 1.043 0 0 0 -1.8.178 45.112 45.112 0 0 1 -33.513 25.69 44.969 44.969 0 0 1 -40.207-14.053c-10.493-11.591-12.991-29.262-7.701-43.74a45.022 45.022 0 0 1 30.773-27.883c18.252-4.697 38.015 4.593 48.728 19.45 0 0 .292.143.172-.041z" fill="#0097a4" transform="translate(0 2.974)"/><g fill="#4d5059"><path d="m18.329 18.534h4.443v38.189h23.538v3.843h-27.981z" transform="translate(9.11 9.212)"/><path d="m67.14 25.513-15.792 35.367a15.11 15.11 0 0 1 -4.448 6.306 9.943 9.943 0 0 1 -6.066 1.861 12.368 12.368 0 0 1 -4.262-.72 9.255 9.255 0 0 1 -3.424-2.162l1.982-3.183a7.863 7.863 0 0 0 5.765 2.4 5.8 5.8 0 0 0 3.692-1.2 10.9 10.9 0 0 0 2.857-4.082l1.382-3.063-14.112-31.524h4.443l11.889 26.84 11.889-26.84z" transform="translate(16.478 12.681)"/><path d="m86.458 42.706h-26.419a11.286 11.286 0 0 0 3.783 7.955 12.551 12.551 0 0 0 8.647 3.033 13.629 13.629 0 0 0 5.4-1.051 11.825 11.825 0 0 0 4.264-3.093l2.4 2.762a13.523 13.523 0 0 1 -5.255 3.843 17.749 17.749 0 0 1 -6.934 1.322 17.544 17.544 0 0 1 -8.617-2.072 14.928 14.928 0 0 1 -5.855-5.735 16.342 16.342 0 0 1 -2.1-8.286 16.922 16.922 0 0 1 2.015-8.284 14.572 14.572 0 0 1 5.524-5.705 15.436 15.436 0 0 1 7.9-2.04 15.281 15.281 0 0 1 7.867 2.04 14.5 14.5 0 0 1 5.464 5.675 17.091 17.091 0 0 1 1.982 8.316zm-22.907-10.778a11.437 11.437 0 0 0 -3.512 7.6h22.4a11.437 11.437 0 0 0 -3.512-7.6 11.6 11.6 0 0 0 -15.373 0z" transform="translate(27.721 12.602)"/><path d="m79.761 16.849h4.262v44.551h-4.262z" transform="translate(39.643 8.375)"/><path d="m88.745 16.849h4.264v44.551h-4.264z" transform="translate(44.108 8.375)"/></g></svg>